<mxfile host="Electron" agent="Mozilla/5.0 (Windows NT 10.0; Win64; x64) AppleWebKit/537.36 (KHTML, like Gecko) draw.io/26.0.3 Chrome/130.0.6723.137 Electron/33.2.1 Safari/537.36" version="26.0.3">
  <diagram name="ページ1" id="QDdhG248vhkqXQboQyjL">
    <mxGraphModel dx="1687" dy="984" grid="1" gridSize="10" guides="1" tooltips="1" connect="1" arrows="1" fold="1" page="1" pageScale="1" pageWidth="827" pageHeight="1169" background="none" math="0" shadow="0">
      <root>
        <mxCell id="0" />
        <mxCell id="1" parent="0" />
        <object label="商品名" 商品名="" id="hVAelzCnBB6Q5HRD-Aig-1">
          <mxCell style="rounded=0;whiteSpace=wrap;html=1;fillColor=#dae8fc;strokeColor=#6c8ebf;" vertex="1" parent="1">
            <mxGeometry x="40" y="80" width="400" height="60" as="geometry" />
          </mxCell>
        </object>
        <object label="検索" 商品名="" id="hVAelzCnBB6Q5HRD-Aig-3">
          <mxCell style="rounded=0;whiteSpace=wrap;html=1;fillColor=#fff2cc;strokeColor=#d6b656;" vertex="1" parent="1">
            <mxGeometry x="876" y="80" width="120" height="60" as="geometry" />
          </mxCell>
        </object>
        <object label="買取価格" 商品名="" id="hVAelzCnBB6Q5HRD-Aig-4">
          <mxCell style="rounded=0;whiteSpace=wrap;html=1;fillColor=#f5f5f5;fontColor=#333333;strokeColor=#666666;" vertex="1" parent="1">
            <mxGeometry x="460" y="80" width="400" height="60" as="geometry" />
          </mxCell>
        </object>
        <object label="配送方法" 商品名="" id="hVAelzCnBB6Q5HRD-Aig-5">
          <mxCell style="rounded=0;whiteSpace=wrap;html=1;fillColor=#d5e8d4;strokeColor=#82b366;" vertex="1" parent="1">
            <mxGeometry x="40" y="160" width="190" height="60" as="geometry" />
          </mxCell>
        </object>
        <object label="配送種類" 商品名="" id="hVAelzCnBB6Q5HRD-Aig-6">
          <mxCell style="rounded=0;whiteSpace=wrap;html=1;fillColor=#d5e8d4;strokeColor=#82b366;" vertex="1" parent="1">
            <mxGeometry x="250" y="160" width="190" height="60" as="geometry" />
          </mxCell>
        </object>
        <object label="出品期間（週）" 商品名="" id="hVAelzCnBB6Q5HRD-Aig-7">
          <mxCell style="rounded=0;whiteSpace=wrap;html=1;fillColor=#d5e8d4;strokeColor=#82b366;" vertex="1" parent="1">
            <mxGeometry x="460" y="160" width="190" height="60" as="geometry" />
          </mxCell>
        </object>
        <object label="価格減/週の割合" 商品名="" id="hVAelzCnBB6Q5HRD-Aig-8">
          <mxCell style="rounded=0;whiteSpace=wrap;html=1;fillColor=#d5e8d4;strokeColor=#82b366;" vertex="1" parent="1">
            <mxGeometry x="670" y="160" width="190" height="60" as="geometry" />
          </mxCell>
        </object>
        <object label="登録" 商品名="" id="hVAelzCnBB6Q5HRD-Aig-9">
          <mxCell style="rounded=0;whiteSpace=wrap;html=1;fillColor=#fff2cc;strokeColor=#d6b656;" vertex="1" parent="1">
            <mxGeometry x="876" y="160" width="120" height="60" as="geometry" />
          </mxCell>
        </object>
        <mxCell id="hVAelzCnBB6Q5HRD-Aig-10" value="商品登録状況" style="shape=table;startSize=30;container=1;collapsible=0;childLayout=tableLayout;strokeColor=#b46504;fontSize=16;fillColor=#fad7ac;" vertex="1" parent="1">
          <mxGeometry x="40" y="240" width="960" height="150" as="geometry" />
        </mxCell>
        <mxCell id="hVAelzCnBB6Q5HRD-Aig-11" value="" style="shape=tableRow;horizontal=0;startSize=0;swimlaneHead=0;swimlaneBody=0;strokeColor=inherit;top=0;left=0;bottom=0;right=0;collapsible=0;dropTarget=0;fillColor=none;points=[[0,0.5],[1,0.5]];portConstraint=eastwest;fontSize=16;" vertex="1" parent="hVAelzCnBB6Q5HRD-Aig-10">
          <mxGeometry y="30" width="960" height="40" as="geometry" />
        </mxCell>
        <mxCell id="hVAelzCnBB6Q5HRD-Aig-12" value="商品名" style="shape=partialRectangle;html=1;whiteSpace=wrap;connectable=0;strokeColor=#d79b00;overflow=hidden;fillColor=#ffe6cc;top=0;left=0;bottom=0;right=0;pointerEvents=1;fontSize=16;" vertex="1" parent="hVAelzCnBB6Q5HRD-Aig-11">
          <mxGeometry width="120" height="40" as="geometry">
            <mxRectangle width="120" height="40" as="alternateBounds" />
          </mxGeometry>
        </mxCell>
        <mxCell id="hVAelzCnBB6Q5HRD-Aig-13" value="登録日" style="shape=partialRectangle;html=1;whiteSpace=wrap;connectable=0;strokeColor=#d79b00;overflow=hidden;fillColor=#ffe6cc;top=0;left=0;bottom=0;right=0;pointerEvents=1;fontSize=16;" vertex="1" parent="hVAelzCnBB6Q5HRD-Aig-11">
          <mxGeometry x="120" width="121" height="40" as="geometry">
            <mxRectangle width="121" height="40" as="alternateBounds" />
          </mxGeometry>
        </mxCell>
        <mxCell id="hVAelzCnBB6Q5HRD-Aig-14" value="売却日" style="shape=partialRectangle;html=1;whiteSpace=wrap;connectable=0;strokeColor=#d79b00;overflow=hidden;fillColor=#ffe6cc;top=0;left=0;bottom=0;right=0;pointerEvents=1;fontSize=16;" vertex="1" parent="hVAelzCnBB6Q5HRD-Aig-11">
          <mxGeometry x="241" width="120" height="40" as="geometry">
            <mxRectangle width="120" height="40" as="alternateBounds" />
          </mxGeometry>
        </mxCell>
        <mxCell id="hVAelzCnBB6Q5HRD-Aig-26" value="価格減/週の割合" style="shape=partialRectangle;html=1;whiteSpace=wrap;connectable=0;strokeColor=#d79b00;overflow=hidden;fillColor=#ffe6cc;top=0;left=0;bottom=0;right=0;pointerEvents=1;fontSize=16;" vertex="1" parent="hVAelzCnBB6Q5HRD-Aig-11">
          <mxGeometry x="361" width="120" height="40" as="geometry">
            <mxRectangle width="120" height="40" as="alternateBounds" />
          </mxGeometry>
        </mxCell>
        <mxCell id="hVAelzCnBB6Q5HRD-Aig-29" value="現時点の適正価格" style="shape=partialRectangle;html=1;whiteSpace=wrap;connectable=0;strokeColor=#d79b00;overflow=hidden;fillColor=#ffe6cc;top=0;left=0;bottom=0;right=0;pointerEvents=1;fontSize=16;" vertex="1" parent="hVAelzCnBB6Q5HRD-Aig-11">
          <mxGeometry x="481" width="120" height="40" as="geometry">
            <mxRectangle width="120" height="40" as="alternateBounds" />
          </mxGeometry>
        </mxCell>
        <mxCell id="hVAelzCnBB6Q5HRD-Aig-32" value="下限価格" style="shape=partialRectangle;html=1;whiteSpace=wrap;connectable=0;strokeColor=#d79b00;overflow=hidden;fillColor=#ffe6cc;top=0;left=0;bottom=0;right=0;pointerEvents=1;fontSize=16;" vertex="1" parent="hVAelzCnBB6Q5HRD-Aig-11">
          <mxGeometry x="601" width="120" height="40" as="geometry">
            <mxRectangle width="120" height="40" as="alternateBounds" />
          </mxGeometry>
        </mxCell>
        <mxCell id="hVAelzCnBB6Q5HRD-Aig-38" value="編集" style="shape=partialRectangle;html=1;whiteSpace=wrap;connectable=0;strokeColor=#d79b00;overflow=hidden;fillColor=#ffe6cc;top=0;left=0;bottom=0;right=0;pointerEvents=1;fontSize=16;" vertex="1" parent="hVAelzCnBB6Q5HRD-Aig-11">
          <mxGeometry x="721" width="119" height="40" as="geometry">
            <mxRectangle width="119" height="40" as="alternateBounds" />
          </mxGeometry>
        </mxCell>
        <mxCell id="hVAelzCnBB6Q5HRD-Aig-41" value="売却済み" style="shape=partialRectangle;html=1;whiteSpace=wrap;connectable=0;strokeColor=#d79b00;overflow=hidden;fillColor=#ffe6cc;top=0;left=0;bottom=0;right=0;pointerEvents=1;fontSize=16;" vertex="1" parent="hVAelzCnBB6Q5HRD-Aig-11">
          <mxGeometry x="840" width="120" height="40" as="geometry">
            <mxRectangle width="120" height="40" as="alternateBounds" />
          </mxGeometry>
        </mxCell>
        <mxCell id="hVAelzCnBB6Q5HRD-Aig-15" value="" style="shape=tableRow;horizontal=0;startSize=0;swimlaneHead=0;swimlaneBody=0;strokeColor=inherit;top=0;left=0;bottom=0;right=0;collapsible=0;dropTarget=0;fillColor=none;points=[[0,0.5],[1,0.5]];portConstraint=eastwest;fontSize=16;" vertex="1" parent="hVAelzCnBB6Q5HRD-Aig-10">
          <mxGeometry y="70" width="960" height="40" as="geometry" />
        </mxCell>
        <mxCell id="hVAelzCnBB6Q5HRD-Aig-16" value="A" style="shape=partialRectangle;html=1;whiteSpace=wrap;connectable=0;strokeColor=#666666;overflow=hidden;fillColor=#f5f5f5;top=0;left=0;bottom=0;right=0;pointerEvents=1;fontSize=16;fontColor=#333333;" vertex="1" parent="hVAelzCnBB6Q5HRD-Aig-15">
          <mxGeometry width="120" height="40" as="geometry">
            <mxRectangle width="120" height="40" as="alternateBounds" />
          </mxGeometry>
        </mxCell>
        <mxCell id="hVAelzCnBB6Q5HRD-Aig-17" value="2025年1月12日" style="shape=partialRectangle;html=1;whiteSpace=wrap;connectable=0;strokeColor=#666666;overflow=hidden;fillColor=#f5f5f5;top=0;left=0;bottom=0;right=0;pointerEvents=1;fontSize=16;fontColor=#333333;" vertex="1" parent="hVAelzCnBB6Q5HRD-Aig-15">
          <mxGeometry x="120" width="121" height="40" as="geometry">
            <mxRectangle width="121" height="40" as="alternateBounds" />
          </mxGeometry>
        </mxCell>
        <mxCell id="hVAelzCnBB6Q5HRD-Aig-18" value="2025年1月14日" style="shape=partialRectangle;html=1;whiteSpace=wrap;connectable=0;strokeColor=#666666;overflow=hidden;fillColor=#f5f5f5;top=0;left=0;bottom=0;right=0;pointerEvents=1;fontSize=16;fontColor=#333333;" vertex="1" parent="hVAelzCnBB6Q5HRD-Aig-15">
          <mxGeometry x="241" width="120" height="40" as="geometry">
            <mxRectangle width="120" height="40" as="alternateBounds" />
          </mxGeometry>
        </mxCell>
        <mxCell id="hVAelzCnBB6Q5HRD-Aig-27" value="100円" style="shape=partialRectangle;html=1;whiteSpace=wrap;connectable=0;strokeColor=#666666;overflow=hidden;fillColor=#f5f5f5;top=0;left=0;bottom=0;right=0;pointerEvents=1;fontSize=16;fontColor=#333333;" vertex="1" parent="hVAelzCnBB6Q5HRD-Aig-15">
          <mxGeometry x="361" width="120" height="40" as="geometry">
            <mxRectangle width="120" height="40" as="alternateBounds" />
          </mxGeometry>
        </mxCell>
        <mxCell id="hVAelzCnBB6Q5HRD-Aig-30" value="3000円" style="shape=partialRectangle;html=1;whiteSpace=wrap;connectable=0;strokeColor=#666666;overflow=hidden;fillColor=#f5f5f5;top=0;left=0;bottom=0;right=0;pointerEvents=1;fontSize=16;fontColor=#333333;" vertex="1" parent="hVAelzCnBB6Q5HRD-Aig-15">
          <mxGeometry x="481" width="120" height="40" as="geometry">
            <mxRectangle width="120" height="40" as="alternateBounds" />
          </mxGeometry>
        </mxCell>
        <mxCell id="hVAelzCnBB6Q5HRD-Aig-33" value="2000円" style="shape=partialRectangle;html=1;whiteSpace=wrap;connectable=0;strokeColor=#666666;overflow=hidden;fillColor=#f5f5f5;top=0;left=0;bottom=0;right=0;pointerEvents=1;fontSize=16;fontColor=#333333;" vertex="1" parent="hVAelzCnBB6Q5HRD-Aig-15">
          <mxGeometry x="601" width="120" height="40" as="geometry">
            <mxRectangle width="120" height="40" as="alternateBounds" />
          </mxGeometry>
        </mxCell>
        <mxCell id="hVAelzCnBB6Q5HRD-Aig-39" value="編集" style="shape=partialRectangle;html=1;whiteSpace=wrap;connectable=0;strokeColor=#d6b656;overflow=hidden;fillColor=#fff2cc;top=0;left=0;bottom=0;right=0;pointerEvents=1;fontSize=16;" vertex="1" parent="hVAelzCnBB6Q5HRD-Aig-15">
          <mxGeometry x="721" width="119" height="40" as="geometry">
            <mxRectangle width="119" height="40" as="alternateBounds" />
          </mxGeometry>
        </mxCell>
        <mxCell id="hVAelzCnBB6Q5HRD-Aig-42" value="売却済み" style="shape=partialRectangle;html=1;whiteSpace=wrap;connectable=0;strokeColor=#23445d;overflow=hidden;fillColor=#bac8d3;top=0;left=0;bottom=0;right=0;pointerEvents=1;fontSize=16;" vertex="1" parent="hVAelzCnBB6Q5HRD-Aig-15">
          <mxGeometry x="840" width="120" height="40" as="geometry">
            <mxRectangle width="120" height="40" as="alternateBounds" />
          </mxGeometry>
        </mxCell>
        <mxCell id="hVAelzCnBB6Q5HRD-Aig-19" value="" style="shape=tableRow;horizontal=0;startSize=0;swimlaneHead=0;swimlaneBody=0;strokeColor=inherit;top=0;left=0;bottom=0;right=0;collapsible=0;dropTarget=0;fillColor=none;points=[[0,0.5],[1,0.5]];portConstraint=eastwest;fontSize=16;" vertex="1" parent="hVAelzCnBB6Q5HRD-Aig-10">
          <mxGeometry y="110" width="960" height="40" as="geometry" />
        </mxCell>
        <mxCell id="hVAelzCnBB6Q5HRD-Aig-20" value="B" style="shape=partialRectangle;html=1;whiteSpace=wrap;connectable=0;strokeColor=#666666;overflow=hidden;fillColor=#f5f5f5;top=0;left=0;bottom=0;right=0;pointerEvents=1;fontSize=16;fontColor=#333333;" vertex="1" parent="hVAelzCnBB6Q5HRD-Aig-19">
          <mxGeometry width="120" height="40" as="geometry">
            <mxRectangle width="120" height="40" as="alternateBounds" />
          </mxGeometry>
        </mxCell>
        <mxCell id="hVAelzCnBB6Q5HRD-Aig-21" value="2025年1月15日" style="shape=partialRectangle;html=1;whiteSpace=wrap;connectable=0;strokeColor=#666666;overflow=hidden;fillColor=#f5f5f5;top=0;left=0;bottom=0;right=0;pointerEvents=1;fontSize=16;fontColor=#333333;" vertex="1" parent="hVAelzCnBB6Q5HRD-Aig-19">
          <mxGeometry x="120" width="121" height="40" as="geometry">
            <mxRectangle width="121" height="40" as="alternateBounds" />
          </mxGeometry>
        </mxCell>
        <mxCell id="hVAelzCnBB6Q5HRD-Aig-22" value="" style="shape=partialRectangle;html=1;whiteSpace=wrap;connectable=0;strokeColor=#666666;overflow=hidden;fillColor=#f5f5f5;top=0;left=0;bottom=0;right=0;pointerEvents=1;fontSize=16;fontColor=#333333;" vertex="1" parent="hVAelzCnBB6Q5HRD-Aig-19">
          <mxGeometry x="241" width="120" height="40" as="geometry">
            <mxRectangle width="120" height="40" as="alternateBounds" />
          </mxGeometry>
        </mxCell>
        <mxCell id="hVAelzCnBB6Q5HRD-Aig-28" value="200円" style="shape=partialRectangle;html=1;whiteSpace=wrap;connectable=0;strokeColor=#666666;overflow=hidden;fillColor=#f5f5f5;top=0;left=0;bottom=0;right=0;pointerEvents=1;fontSize=16;fontColor=#333333;" vertex="1" parent="hVAelzCnBB6Q5HRD-Aig-19">
          <mxGeometry x="361" width="120" height="40" as="geometry">
            <mxRectangle width="120" height="40" as="alternateBounds" />
          </mxGeometry>
        </mxCell>
        <mxCell id="hVAelzCnBB6Q5HRD-Aig-31" value="1000円" style="shape=partialRectangle;html=1;whiteSpace=wrap;connectable=0;strokeColor=#666666;overflow=hidden;fillColor=#f5f5f5;top=0;left=0;bottom=0;right=0;pointerEvents=1;fontSize=16;fontColor=#333333;" vertex="1" parent="hVAelzCnBB6Q5HRD-Aig-19">
          <mxGeometry x="481" width="120" height="40" as="geometry">
            <mxRectangle width="120" height="40" as="alternateBounds" />
          </mxGeometry>
        </mxCell>
        <mxCell id="hVAelzCnBB6Q5HRD-Aig-34" value="800円" style="shape=partialRectangle;html=1;whiteSpace=wrap;connectable=0;strokeColor=#666666;overflow=hidden;fillColor=#f5f5f5;top=0;left=0;bottom=0;right=0;pointerEvents=1;fontSize=16;fontColor=#333333;" vertex="1" parent="hVAelzCnBB6Q5HRD-Aig-19">
          <mxGeometry x="601" width="120" height="40" as="geometry">
            <mxRectangle width="120" height="40" as="alternateBounds" />
          </mxGeometry>
        </mxCell>
        <mxCell id="hVAelzCnBB6Q5HRD-Aig-40" value="編集" style="shape=partialRectangle;html=1;whiteSpace=wrap;connectable=0;strokeColor=#d6b656;overflow=hidden;fillColor=#fff2cc;top=0;left=0;bottom=0;right=0;pointerEvents=1;fontSize=16;" vertex="1" parent="hVAelzCnBB6Q5HRD-Aig-19">
          <mxGeometry x="721" width="119" height="40" as="geometry">
            <mxRectangle width="119" height="40" as="alternateBounds" />
          </mxGeometry>
        </mxCell>
        <mxCell id="hVAelzCnBB6Q5HRD-Aig-43" value="売却済み" style="shape=partialRectangle;html=1;whiteSpace=wrap;connectable=0;strokeColor=#d6b656;overflow=hidden;fillColor=#fff2cc;top=0;left=0;bottom=0;right=0;pointerEvents=1;fontSize=16;" vertex="1" parent="hVAelzCnBB6Q5HRD-Aig-19">
          <mxGeometry x="840" width="120" height="40" as="geometry">
            <mxRectangle width="120" height="40" as="alternateBounds" />
          </mxGeometry>
        </mxCell>
        <mxCell id="hVAelzCnBB6Q5HRD-Aig-23" value="メルカリ価格決定ツール" style="text;html=1;fontSize=24;fontStyle=1;verticalAlign=middle;align=center;" vertex="1" parent="1">
          <mxGeometry x="40" y="20" width="960" height="40" as="geometry" />
        </mxCell>
      </root>
    </mxGraphModel>
  </diagram>
</mxfile>
